<?xml version="1.0" encoding="utf-8"?>
<!-- Generator: Adobe Illustrator 24.2.1, SVG Export Plug-In . SVG Version: 6.00 Build 0)  -->
<svg version="1.1" id="icon_x5F_search" xmlns="http://www.w3.org/2000/svg" xmlns:xlink="http://www.w3.org/1999/xlink" x="0px"
	 y="0px" viewBox="0 0 20 20" style="enable-background:new 0 0 20 20;" xml:space="preserve">
<path id="icon_x5F_search_1_" d="M15.6,14.6c1.3-1.6,2.2-3.6,2.2-5.8c0-4.9-4-8.9-8.9-8.9S0,4,0,8.9s4,8.9,8.9,8.9
	c2.2,0,4.2-0.8,5.8-2.2l4.2,4.2c0.1,0.1,0.3,0.2,0.5,0.2c0.2,0,0.3-0.1,0.5-0.2c0.3-0.3,0.3-0.7,0-0.9L15.6,14.6z M8.9,16.4
	c-4.2,0-7.6-3.4-7.6-7.6c0-4.2,3.4-7.6,7.6-7.6c4.2,0,7.6,3.4,7.6,7.6C16.4,13,13,16.4,8.9,16.4z"/>
</svg>
